<svg width="555" height="140" viewBox="0 0 555 140" fill="none" xmlns="http://www.w3.org/2000/svg">
    <path d="M28.2646 102.9V95.9H36.0346V102.9H28.2646ZM47.7946 91V80.78C48.0279 80.78 48.2146 80.8967 48.3546 81.13C48.5413 81.3633 48.6813 81.7133 48.7746 82.18C48.9146 82.6 49.0079 83.1367 49.0546 83.79C49.1479 84.3967 49.1946 85.0967 49.1946 85.89C49.1946 86.6833 49.1479 87.4067 49.0546 88.06C49.0079 88.6667 48.9146 89.2033 48.7746 89.67C48.6813 90.09 48.5413 90.4167 48.3546 90.65C48.2146 90.8833 48.0279 91 47.7946 91ZM23.7146 113.89C19.6546 113.89 16.0846 113.213 13.0046 111.86C9.92461 110.553 7.52128 108.64 5.79461 106.12C4.11461 103.647 3.27461 100.707 3.27461 97.3C3.27461 93.8933 4.11461 90.9533 5.79461 88.48C7.52128 86.0067 9.92461 84.1167 13.0046 82.81C16.0846 81.4567 19.6546 80.78 23.7146 80.78H28.4746V74.13C28.4746 71.5167 27.6346 69.5333 25.9546 68.18C24.3213 66.78 21.6613 66.08 17.9746 66.08C16.9013 66.08 15.5013 66.15 13.7746 66.29C12.0946 66.43 10.1346 66.6633 7.89461 66.99L6.77461 57.68C9.01461 57.12 11.1846 56.6767 13.2846 56.35C15.3846 55.9767 17.4379 55.79 19.4446 55.79C23.5046 55.79 27.0979 56.5367 30.2246 58.03C33.3979 59.5233 35.8946 61.6467 37.7146 64.4C39.5813 67.1067 40.5146 70.35 40.5146 74.13V91H23.7146C20.7746 91 18.6279 91.5133 17.2746 92.54C15.9679 93.5667 15.3146 95.1533 15.3146 97.3C15.3146 99.4467 15.9679 101.033 17.2746 102.06C18.6279 103.133 20.7746 103.67 23.7146 103.67C24.1346 103.67 24.6013 103.647 25.1146 103.6C25.6746 103.553 26.3046 103.507 27.0046 103.46L27.2846 113.61C26.7713 113.703 26.1879 113.773 25.5346 113.82C24.9279 113.867 24.3213 113.89 23.7146 113.89ZM40.5146 91V80.78H47.7946V91H40.5146ZM85.1593 91V80.78H92.4393V91H85.1593ZM47.7793 91C47.546 91 47.336 90.8833 47.1493 90.65C46.9626 90.4167 46.8226 90.09 46.7293 89.67C46.636 89.2033 46.566 88.6667 46.5193 88.06C46.426 87.4067 46.3793 86.6833 46.3793 85.89C46.3793 84.8167 46.426 83.9067 46.5193 83.16C46.6126 82.4133 46.776 81.83 47.0093 81.41C47.196 80.99 47.4526 80.78 47.7793 80.78V91ZM47.7793 91V80.78H77.3193L73.1193 84V74.13C73.1193 71.5167 72.3026 69.5333 70.6693 68.18C69.036 66.78 66.3526 66.08 62.6193 66.08C61.686 66.08 60.426 66.15 58.8393 66.29C57.2526 66.3833 55.4793 66.57 53.5193 66.85L52.4693 57.4C54.476 56.9333 56.436 56.56 58.3493 56.28C60.3093 55.9533 62.246 55.79 64.1593 55.79C68.1726 55.79 71.7426 56.5367 74.8693 58.03C78.0426 59.5233 80.5393 61.6467 82.3593 64.4C84.226 67.1067 85.1593 70.35 85.1593 74.13V91H47.7793ZM92.4393 91V80.78C92.6726 80.78 92.8826 80.8967 93.0693 81.13C93.256 81.3633 93.396 81.7133 93.4893 82.18C93.5826 82.6 93.6526 83.1367 93.6993 83.79C93.7926 84.3967 93.8393 85.0967 93.8393 85.89C93.8393 86.6833 93.7926 87.4067 93.6993 88.06C93.6526 88.6667 93.5826 89.2033 93.4893 89.67C93.396 90.09 93.256 90.4167 93.0693 90.65C92.8826 90.8833 92.6726 91 92.4393 91ZM99.978 91V42H112.018V91H99.978ZM92.418 91V80.78H99.978V91H92.418ZM92.418 91C92.1846 91 91.9746 90.8833 91.788 90.65C91.6013 90.4167 91.4613 90.09 91.368 89.67C91.2746 89.2033 91.2046 88.6667 91.158 88.06C91.0646 87.4067 91.018 86.6833 91.018 85.89C91.018 84.8167 91.0646 83.9067 91.158 83.16C91.2513 82.4133 91.4146 81.83 91.648 81.41C91.8346 80.99 92.0913 80.78 92.418 80.78V91ZM122.637 91V42H134.607V91H122.637ZM213.467 91V80.78H220.677V91H213.467ZM183.157 91C177.93 91 173.474 90.2767 169.787 88.83C166.1 87.3367 163.3 85.19 161.387 82.39C159.52 79.5433 158.587 76.0667 158.587 71.96C158.587 70.84 158.657 69.6967 158.797 68.53C158.937 67.3167 159.1 66.1733 159.287 65.1C159.474 63.98 159.66 63 159.847 62.16C160.034 61.2733 160.174 60.5967 160.267 60.13L171.957 62.44C171.817 63.14 171.63 64.0267 171.397 65.1C171.21 66.1733 171.024 67.2933 170.837 68.46C170.697 69.6267 170.627 70.7233 170.627 71.75C170.627 73.6167 170.93 75.1333 171.537 76.3C172.19 77.4667 173.1 78.3767 174.267 79.03C175.434 79.6833 176.834 80.15 178.467 80.43C180.1 80.6633 181.92 80.78 183.927 80.78H208.917L201.427 87.01V42H213.467V91H183.157ZM220.677 91V80.78C220.957 80.78 221.167 80.8967 221.307 81.13C221.494 81.3633 221.634 81.7133 221.727 82.18C221.867 82.6 221.96 83.1367 222.007 83.79C222.054 84.3967 222.077 85.0967 222.077 85.89C222.077 86.6833 222.054 87.4067 222.007 88.06C221.96 88.6667 221.867 89.2033 221.727 89.67C221.634 90.09 221.494 90.4167 221.307 90.65C221.167 90.8833 220.957 91 220.677 91ZM181.127 63.07C180.147 61.9033 179.4 60.8067 178.887 59.78C178.374 58.7067 178.117 57.5633 178.117 56.35C178.117 54.5767 178.584 52.99 179.517 51.59C180.45 50.19 181.687 49.0933 183.227 48.3C184.767 47.46 186.47 47.04 188.337 47.04C189.317 47.04 190.32 47.18 191.347 47.46C192.42 47.74 193.307 48.1133 194.007 48.58L191.277 53.62C190.81 53.3867 190.344 53.2467 189.877 53.2C189.457 53.1067 189.037 53.06 188.617 53.06C187.497 53.06 186.634 53.3633 186.027 53.97C185.42 54.53 185.117 55.2767 185.117 56.21C185.117 56.77 185.21 57.3067 185.397 57.82C185.63 58.2867 185.98 58.7767 186.447 59.29L181.127 63.07ZM176.437 63.98V58.03H195.547V63.98H176.437ZM264.76 91C262.613 91 260.467 90.6033 258.32 89.81C256.22 88.97 254.307 87.78 252.58 86.24L259.86 78.75C260.653 79.4033 261.447 79.9167 262.24 80.29C263.08 80.6167 263.92 80.78 264.76 80.78H278.41L271.62 86.66V71.89C271.62 71.19 271.527 70.0933 271.34 68.6C271.2 67.1067 270.967 65.4033 270.64 63.49C270.36 61.53 270.033 59.5233 269.66 57.47L281.49 55.79C281.817 57.47 282.143 59.3833 282.47 61.53C282.797 63.63 283.077 65.6133 283.31 67.48C283.543 69.3467 283.66 70.8167 283.66 71.89V91H264.76ZM220.66 91V80.78H230.81L228.36 83.44V63H240.4V91H220.66ZM240.4 91V80.78H244.6C246.047 80.78 247.143 80.57 247.89 80.15C248.637 79.6833 249.15 78.7733 249.43 77.42C249.757 76.02 249.92 73.92 249.92 71.12V59.5H261.96V71.12C261.96 75.6933 261.33 79.45 260.07 82.39C258.81 85.33 256.897 87.5 254.33 88.9C251.81 90.3 248.567 91 244.6 91H240.4ZM220.66 91C220.427 91 220.217 90.8833 220.03 90.65C219.843 90.4167 219.703 90.09 219.61 89.67C219.517 89.2033 219.447 88.6667 219.4 88.06C219.307 87.4067 219.26 86.6833 219.26 85.89C219.26 84.8167 219.307 83.9067 219.4 83.16C219.493 82.4133 219.657 81.83 219.89 81.41C220.077 80.99 220.333 80.78 220.66 80.78V91ZM306.189 91V80.78H313.819V91H306.189ZM294.219 91V42H306.189V91H294.219ZM313.819 91V80.78C314.053 80.78 314.263 80.8967 314.449 81.13C314.636 81.3633 314.776 81.7133 314.869 82.18C314.963 82.6 315.033 83.1367 315.079 83.79C315.173 84.3967 315.219 85.0967 315.219 85.89C315.219 86.6833 315.173 87.4067 315.079 88.06C315.033 88.6667 314.963 89.2033 314.869 89.67C314.776 90.09 314.636 90.4167 314.449 90.65C314.263 90.8833 314.053 91 313.819 91ZM333.154 91V80.78H340.364V91H333.154ZM313.834 91C313.601 91 313.391 90.8833 313.204 90.65C313.017 90.4167 312.877 90.09 312.784 89.67C312.691 89.2033 312.621 88.6667 312.574 88.06C312.481 87.4067 312.434 86.6833 312.434 85.89C312.434 84.8167 312.481 83.9067 312.574 83.16C312.667 82.4133 312.831 81.83 313.064 81.41C313.251 80.99 313.507 80.78 313.834 80.78V91ZM313.834 91V80.78H328.534L321.044 87.01V55.79H333.154V91H313.834ZM340.364 91V80.78C340.597 80.78 340.807 80.8967 340.994 81.13C341.181 81.3633 341.321 81.7133 341.414 82.18C341.507 82.6 341.577 83.1367 341.624 83.79C341.717 84.3967 341.764 85.0967 341.764 85.89C341.764 86.6833 341.717 87.4067 341.624 88.06C341.577 88.6667 341.507 89.2033 341.414 89.67C341.321 90.09 341.181 90.4167 340.994 90.65C340.854 90.8833 340.644 91 340.364 91ZM321.044 49.21V40.04H333.154V49.21H321.044ZM340.287 91V80.78H375.287L370.877 84.91V73.5C370.877 71.4467 370.667 69.8833 370.247 68.81C369.827 67.69 369.081 66.92 368.007 66.5C366.934 66.0333 365.394 65.8 363.387 65.8C361.521 65.8 359.701 65.9167 357.927 66.15C356.154 66.3833 354.754 66.71 353.727 67.13L361.287 60.2C361.007 61.2267 360.727 62.5333 360.447 64.12C360.214 65.7067 360.004 67.3867 359.817 69.16C359.677 70.9333 359.607 72.6367 359.607 74.27C359.607 75.67 359.677 77.21 359.817 78.89C359.957 80.57 360.121 82.0633 360.307 83.37C360.541 84.6767 360.704 85.5633 360.797 86.03L349.387 89.18C349.154 88.48 348.897 87.3833 348.617 85.89C348.337 84.3967 348.104 82.6467 347.917 80.64C347.731 78.6333 347.637 76.51 347.637 74.27C347.637 71.9367 347.731 69.6967 347.917 67.55C348.151 65.3567 348.431 63.3967 348.757 61.67C349.084 59.8967 349.387 58.4967 349.667 57.47C350.834 57.05 352.654 56.63 355.127 56.21C357.601 55.79 360.354 55.58 363.387 55.58C367.774 55.58 371.391 56.1633 374.237 57.33C377.131 58.4967 379.301 60.3867 380.747 63C382.194 65.6133 382.917 69.16 382.917 73.64V91H340.287ZM340.357 91C340.124 91 339.914 90.8833 339.727 90.65C339.541 90.4167 339.401 90.09 339.307 89.67C339.214 89.2033 339.144 88.6667 339.097 88.06C339.004 87.4067 338.957 86.6833 338.957 85.89C338.957 84.8167 339.004 83.9067 339.097 83.16C339.191 82.4133 339.354 81.83 339.587 81.41C339.774 80.99 340.031 80.78 340.357 80.78V91Z" fill="white"/>
    <path d="M485.041 13.2882L440.425 30.2117L482.717 46.4705C484.221 47.0521 485.861 47.0521 487.365 46.4705L529.657 30.2117L485.041 13.2882ZM415.055 34.8927C415.055 29.3531 418.445 24.3951 423.557 22.4562L480.421 0.851716C483.401 -0.283905 486.654 -0.283905 489.634 0.851716L546.498 22.4562C551.61 24.3951 555 29.3531 555 34.8927V44.864L485.779 71.4541C485.287 71.648 484.74 71.648 484.221 71.4541L415 44.864V34.8927H415.055ZM415.055 73.67V59.0731L479.601 83.8906C483.1 85.2478 486.955 85.2478 490.454 83.8906L555 59.0731V73.67L520.007 87.1313V101.34L555 87.8791V105.107C555 110.647 551.61 115.605 546.498 117.544L489.634 139.148C486.654 140.284 483.401 140.284 480.421 139.148L423.557 117.544C418.445 115.605 415.055 110.619 415.055 105.08V87.8514L450.048 101.313V87.1036L415.055 73.6423V73.67ZM479.601 112.669C483.1 114.026 486.955 114.026 490.454 112.669L506.884 106.354V92.1446L485.779 100.26C485.287 100.454 484.74 100.454 484.221 100.26L463.116 92.1446V106.354L479.546 112.669H479.601Z" fill="white"/>
</svg>
